<svg xmlns="http://www.w3.org/2000/svg" width="18" height="11"><path fill-rule="evenodd" fill="#FFF" d="M11.159 1.088h5.543v1.1h-5.543v-1.1zm2.934 1.674c2.73 0 4.049 2.441 3.895 4.845H12.2c.062 1.36.745 1.777 1.97 1.777.885 0 1.599-.155 1.739-.64h1.939c-.62 1.845-1.939 2.257-3.755 2.257-2.529 0-4.096-1.693-4.096-4.112 0-2.343 1.66-4.127 4.096-4.127zm1.691 3.688c-.201-1.088-.683-2.07-1.753-2.07-1.397 0-1.8 1.466-1.831 2.07h3.584zM9.279 7.761c0 2.193-1.909 3.131-3.91 3.131H0V.029h5.214c2.11 0 3.537.733 3.537 2.744 0 1.059-.543 1.799-1.505 2.253 1.35.377 2.033 1.391 2.033 2.735zm-4.562-5.82h-2.49v2.525h2.676c.854 0 1.49-.377 1.49-1.285 0-1.027-.808-1.24-1.676-1.24zm.372 4.142H2.227v2.964h2.816c.962 0 1.799-.302 1.799-1.421 0-1.104-.713-1.543-1.753-1.543z"/></svg>