<svg xmlns="http://www.w3.org/2000/svg" width="16" height="16"><path fill-rule="evenodd" fill="#FFF" d="M14.015 3.015v1.97h-1.018v-1.97h-1.992V1.996h1.992V.03h1.018v1.966h1.959v1.019h-1.959zM8.779.648s1.415.874 1.415 2.584c0 1.709-.827 2.454-1.872 3.374-1.046.92-.435 1.468 1.198 2.628 1.632 1.16 2.089 3.728-.022 5.589C7.386 16.685.963 16.435.963 12.981S5.796 9.474 6.19 9.474c.39 0 .457-.109.129-.46-.327-.349-.85-1.028-.239-1.773-1.09.044-4.094-.547-4.094-3.309 0-2.76 2.896-3.942 3.94-3.942h5.204s-.238.198-.783.503C9.802.8 8.779.648 8.779.648zM2.812 12.345c0 1.6 1.155 2.673 3.308 2.673 2.153 0 3.421-.722 3.421-2.212 0-1.492-1.424-2.236-2.221-2.849-2.939 0-4.508.788-4.508 2.388zM5.709.516c-3.049 0-1.873 6.045.719 6.045 3.439 0 1.654-6.133-.719-6.045z"/></svg>