<svg xmlns="http://www.w3.org/2000/svg" width="16" height="16"><path fill-rule="evenodd" fill="#FFF" d="M14.4-.001H1.6c-.88 0-1.6.72-1.6 1.6v12.799c0 .881.72 1.601 1.6 1.601h12.8c.88 0 1.6-.72 1.6-1.601V1.599c0-.88-.72-1.6-1.6-1.6zM8 4.799c1.76 0 3.2 1.44 3.2 3.2 0 1.76-1.44 3.199-3.2 3.199-1.76 0-3.2-1.439-3.2-3.199 0-1.76 1.44-3.2 3.2-3.2zm-6 9.599c-.24 0-.4-.16-.4-.4V7.199h1.68c-.08.24-.08.56-.08.8 0 2.639 2.16 4.8 4.8 4.8 2.64 0 4.8-2.161 4.8-4.8 0-.24 0-.56-.08-.8h1.68v6.799c0 .24-.16.4-.4.4H2zM14.4 3.599c0 .239-.16.4-.4.4h-1.6c-.24 0-.4-.161-.4-.4v-1.6c0-.241.16-.4.4-.4H14c.24 0 .4.159.4.4v1.6z"/></svg>