<svg xmlns="http://www.w3.org/2000/svg" width="16" height="16"><path fill-rule="evenodd" fill="#FFF" d="M7.988.019c-4.418 0-8 3.574-8 7.984a7.987 7.987 0 0 0 4.833 7.334c-.021-.556-.001-1.22.141-1.822l1.033-4.366s-.256-.512-.256-1.269c0-1.186.69-2.073 1.548-2.073.73 0 1.083.548 1.083 1.204 0 .732-.468 1.827-.709 2.843-.201.85.428 1.544 1.268 1.544 1.52 0 2.544-1.951 2.544-4.262 0-1.756-1.183-3.071-3.339-3.071-2.436 0-3.954 1.813-3.954 3.838 0 .698.207 1.192.53 1.572.148.175.169.246.115.447-.039.147-.126.502-.163.643-.054.203-.219.275-.402.2-1.122-.457-1.645-1.682-1.645-3.06 0-2.277 1.924-5.007 5.738-5.007 3.067 0 5.083 2.213 5.083 4.591 0 3.144-1.751 5.491-4.332 5.491-.867 0-1.682-.468-1.961-.997 0 0-.466 1.844-.564 2.201-.169.609-.494 1.218-.795 1.696.699.2 1.439.307 2.204.307 4.418 0 8-3.575 8-7.984 0-4.41-3.582-7.984-8-7.984z"/></svg>