<svg xmlns="http://www.w3.org/2000/svg" width="17" height="13"><path fill-rule="evenodd" fill="#FFF" d="M16.562 1.588c-.269.147-1.078.444-1.832.518.483-.261 1.199-1.112 1.376-1.79-.465.296-1.532.728-2.06.728l.002.002A3.298 3.298 0 0 0 11.661.028 3.298 3.298 0 0 0 8.36 3.322c0 .253.03.499.085.734h-.001c-2.473-.063-5.363-1.3-6.992-3.417-1 1.729-.135 3.651 1.001 4.351-.388.031-1.105-.043-1.442-.37-.023 1.147.531 2.667 2.546 3.218-.388.209-1.074.149-1.374.104.106.97 1.465 2.237 2.95 2.237-.529.61-2.336 1.72-4.571 1.366a9.916 9.916 0 0 0 5.163 1.457c5.325 0 9.461-4.307 9.238-9.62l-.002-.018.002-.042-.002-.049a5.689 5.689 0 0 0 1.601-1.685z"/></svg>